<mxfile host="app.diagrams.net" modified="2022-04-10T23:04:42.014Z" agent="5.0 (Windows NT 10.0; Win64; x64) AppleWebKit/537.36 (KHTML, like Gecko) Chrome/100.0.4896.75 Safari/537.36" etag="NdRnHeolFFuVibt226qm" version="17.1.2" type="github">
  <diagram id="Odj46-beIhoIQQR6Bg-E" name="第 1 页">
    <mxGraphModel dx="782" dy="1605" grid="1" gridSize="10" guides="1" tooltips="1" connect="1" arrows="1" fold="1" page="1" pageScale="1" pageWidth="827" pageHeight="1169" math="0" shadow="0">
      <root>
        <mxCell id="0" />
        <mxCell id="1" parent="0" />
        <mxCell id="9VaDb7st5AmOWOfAFCHQ-3" value="" style="edgeStyle=orthogonalEdgeStyle;rounded=0;orthogonalLoop=1;jettySize=auto;html=1;" edge="1" parent="1" source="9VaDb7st5AmOWOfAFCHQ-1" target="9VaDb7st5AmOWOfAFCHQ-2">
          <mxGeometry relative="1" as="geometry" />
        </mxCell>
        <mxCell id="9VaDb7st5AmOWOfAFCHQ-1" value="@EnableTransactionManagement&lt;br&gt;开启" style="rounded=0;whiteSpace=wrap;html=1;" vertex="1" parent="1">
          <mxGeometry x="30" y="140" width="200" height="60" as="geometry" />
        </mxCell>
        <mxCell id="9VaDb7st5AmOWOfAFCHQ-5" value="" style="edgeStyle=orthogonalEdgeStyle;rounded=0;orthogonalLoop=1;jettySize=auto;html=1;entryX=0;entryY=0.5;entryDx=0;entryDy=0;" edge="1" parent="1" source="9VaDb7st5AmOWOfAFCHQ-2" target="9VaDb7st5AmOWOfAFCHQ-4">
          <mxGeometry relative="1" as="geometry" />
        </mxCell>
        <mxCell id="9VaDb7st5AmOWOfAFCHQ-7" value="" style="edgeStyle=orthogonalEdgeStyle;rounded=0;orthogonalLoop=1;jettySize=auto;html=1;" edge="1" parent="1" source="9VaDb7st5AmOWOfAFCHQ-2" target="9VaDb7st5AmOWOfAFCHQ-6">
          <mxGeometry relative="1" as="geometry" />
        </mxCell>
        <mxCell id="9VaDb7st5AmOWOfAFCHQ-2" value="TransactionManagementConfigurationSelector" style="whiteSpace=wrap;html=1;rounded=0;" vertex="1" parent="1">
          <mxGeometry x="350" y="140" width="280" height="60" as="geometry" />
        </mxCell>
        <mxCell id="9VaDb7st5AmOWOfAFCHQ-11" value="" style="edgeStyle=orthogonalEdgeStyle;rounded=0;orthogonalLoop=1;jettySize=auto;html=1;" edge="1" parent="1" source="9VaDb7st5AmOWOfAFCHQ-4" target="9VaDb7st5AmOWOfAFCHQ-10">
          <mxGeometry relative="1" as="geometry" />
        </mxCell>
        <mxCell id="9VaDb7st5AmOWOfAFCHQ-4" value="&lt;span style=&quot;color: rgb(77 , 77 , 77) ; font-size: 10.3604pt&quot;&gt;自动代理注册器&lt;/span&gt;AutoProxyRegister" style="whiteSpace=wrap;html=1;rounded=0;" vertex="1" parent="1">
          <mxGeometry x="770" y="60" width="120" height="60" as="geometry" />
        </mxCell>
        <mxCell id="9VaDb7st5AmOWOfAFCHQ-14" value="" style="edgeStyle=orthogonalEdgeStyle;rounded=0;orthogonalLoop=1;jettySize=auto;html=1;" edge="1" parent="1" source="9VaDb7st5AmOWOfAFCHQ-6" target="9VaDb7st5AmOWOfAFCHQ-13">
          <mxGeometry relative="1" as="geometry" />
        </mxCell>
        <mxCell id="9VaDb7st5AmOWOfAFCHQ-15" value="配置" style="edgeLabel;html=1;align=center;verticalAlign=middle;resizable=0;points=[];" vertex="1" connectable="0" parent="9VaDb7st5AmOWOfAFCHQ-14">
          <mxGeometry x="-0.1656" relative="1" as="geometry">
            <mxPoint as="offset" />
          </mxGeometry>
        </mxCell>
        <mxCell id="9VaDb7st5AmOWOfAFCHQ-6" value="ProxyTransactionManagementConfiguration" style="whiteSpace=wrap;html=1;rounded=0;" vertex="1" parent="1">
          <mxGeometry x="770" y="200" width="270" height="60" as="geometry" />
        </mxCell>
        <mxCell id="9VaDb7st5AmOWOfAFCHQ-8" value="" style="endArrow=block;dashed=1;endFill=0;endSize=12;html=1;rounded=0;exitX=0.5;exitY=0;exitDx=0;exitDy=0;" edge="1" parent="1" source="9VaDb7st5AmOWOfAFCHQ-4">
          <mxGeometry width="160" relative="1" as="geometry">
            <mxPoint x="830" y="60" as="sourcePoint" />
            <mxPoint x="830" y="-10" as="targetPoint" />
          </mxGeometry>
        </mxCell>
        <mxCell id="9VaDb7st5AmOWOfAFCHQ-9" value="&lt;div&gt;&lt;span style=&quot;font-size: 8.00807pt ; font-family: &amp;#34;consolas&amp;#34; ; color: rgb(226 , 119 , 122)&quot;&gt;ImportBeanDefinitionRegistrar&lt;/span&gt;&lt;/div&gt;" style="rounded=0;whiteSpace=wrap;html=1;" vertex="1" parent="1">
          <mxGeometry x="730" y="-70" width="200" height="60" as="geometry" />
        </mxCell>
        <mxCell id="9VaDb7st5AmOWOfAFCHQ-10" value="AnnotationAwareAspectJAutoProxyCreator&lt;br&gt;覆盖InfrastructureAdvisorAutoProxyCreator" style="whiteSpace=wrap;html=1;rounded=0;" vertex="1" parent="1">
          <mxGeometry x="970" y="60" width="260" height="60" as="geometry" />
        </mxCell>
        <mxCell id="9VaDb7st5AmOWOfAFCHQ-17" value="" style="edgeStyle=orthogonalEdgeStyle;rounded=0;orthogonalLoop=1;jettySize=auto;html=1;" edge="1" parent="1" source="9VaDb7st5AmOWOfAFCHQ-13" target="9VaDb7st5AmOWOfAFCHQ-16">
          <mxGeometry relative="1" as="geometry" />
        </mxCell>
        <mxCell id="9VaDb7st5AmOWOfAFCHQ-20" value="" style="edgeStyle=orthogonalEdgeStyle;rounded=0;orthogonalLoop=1;jettySize=auto;html=1;entryX=0;entryY=0.5;entryDx=0;entryDy=0;" edge="1" parent="1" source="9VaDb7st5AmOWOfAFCHQ-13" target="9VaDb7st5AmOWOfAFCHQ-19">
          <mxGeometry relative="1" as="geometry" />
        </mxCell>
        <mxCell id="9VaDb7st5AmOWOfAFCHQ-24" value="advice" style="edgeLabel;html=1;align=center;verticalAlign=middle;resizable=0;points=[];" vertex="1" connectable="0" parent="9VaDb7st5AmOWOfAFCHQ-20">
          <mxGeometry x="0.0552" y="2" relative="1" as="geometry">
            <mxPoint as="offset" />
          </mxGeometry>
        </mxCell>
        <mxCell id="9VaDb7st5AmOWOfAFCHQ-13" value="直接注册BeanFactoryTransactionAttributeSourceAdvisor" style="whiteSpace=wrap;html=1;rounded=0;" vertex="1" parent="1">
          <mxGeometry x="1195" y="200" width="295" height="60" as="geometry" />
        </mxCell>
        <mxCell id="9VaDb7st5AmOWOfAFCHQ-29" style="edgeStyle=orthogonalEdgeStyle;rounded=0;orthogonalLoop=1;jettySize=auto;html=1;" edge="1" parent="1" source="9VaDb7st5AmOWOfAFCHQ-16" target="9VaDb7st5AmOWOfAFCHQ-22">
          <mxGeometry relative="1" as="geometry" />
        </mxCell>
        <mxCell id="9VaDb7st5AmOWOfAFCHQ-16" value="TransactionAttributeSourcePointcut" style="whiteSpace=wrap;html=1;rounded=0;" vertex="1" parent="1">
          <mxGeometry x="1730" y="200" width="230" height="60" as="geometry" />
        </mxCell>
        <mxCell id="9VaDb7st5AmOWOfAFCHQ-26" value="" style="edgeStyle=orthogonalEdgeStyle;rounded=0;orthogonalLoop=1;jettySize=auto;html=1;" edge="1" parent="1" source="9VaDb7st5AmOWOfAFCHQ-19" target="9VaDb7st5AmOWOfAFCHQ-25">
          <mxGeometry relative="1" as="geometry" />
        </mxCell>
        <mxCell id="9VaDb7st5AmOWOfAFCHQ-19" value="TransactionInterceptor" style="whiteSpace=wrap;html=1;rounded=0;" vertex="1" parent="1">
          <mxGeometry x="1730" y="310" width="180" height="60" as="geometry" />
        </mxCell>
        <mxCell id="9VaDb7st5AmOWOfAFCHQ-21" value="&lt;span style=&quot;font-size: 11px ; background-color: rgb(255 , 255 , 255)&quot;&gt;Advisor包含advice、pointcut&lt;/span&gt;" style="text;html=1;strokeColor=none;fillColor=none;align=center;verticalAlign=middle;whiteSpace=wrap;rounded=0;" vertex="1" parent="1">
          <mxGeometry x="1520" y="200" width="180" height="30" as="geometry" />
        </mxCell>
        <mxCell id="9VaDb7st5AmOWOfAFCHQ-32" value="" style="edgeStyle=orthogonalEdgeStyle;rounded=0;orthogonalLoop=1;jettySize=auto;html=1;" edge="1" parent="1" source="9VaDb7st5AmOWOfAFCHQ-22" target="9VaDb7st5AmOWOfAFCHQ-31">
          <mxGeometry relative="1" as="geometry" />
        </mxCell>
        <mxCell id="9VaDb7st5AmOWOfAFCHQ-22" value="调用matches进行方法匹配，是否符合创建动态代理资格" style="whiteSpace=wrap;html=1;rounded=0;" vertex="1" parent="1">
          <mxGeometry x="2110" y="200" width="120" height="60" as="geometry" />
        </mxCell>
        <mxCell id="9VaDb7st5AmOWOfAFCHQ-28" value="" style="edgeStyle=orthogonalEdgeStyle;rounded=0;orthogonalLoop=1;jettySize=auto;html=1;" edge="1" parent="1" source="9VaDb7st5AmOWOfAFCHQ-25" target="9VaDb7st5AmOWOfAFCHQ-27">
          <mxGeometry relative="1" as="geometry" />
        </mxCell>
        <mxCell id="9VaDb7st5AmOWOfAFCHQ-30" value="处理事务" style="edgeLabel;html=1;align=center;verticalAlign=middle;resizable=0;points=[];" vertex="1" connectable="0" parent="9VaDb7st5AmOWOfAFCHQ-28">
          <mxGeometry x="-0.1758" y="-2" relative="1" as="geometry">
            <mxPoint as="offset" />
          </mxGeometry>
        </mxCell>
        <mxCell id="9VaDb7st5AmOWOfAFCHQ-25" value="invoke" style="whiteSpace=wrap;html=1;rounded=0;" vertex="1" parent="1">
          <mxGeometry x="1760" y="450" width="120" height="60" as="geometry" />
        </mxCell>
        <mxCell id="9VaDb7st5AmOWOfAFCHQ-27" value="TransactionAspectSupport#invokeWithinTransaction" style="whiteSpace=wrap;html=1;rounded=0;" vertex="1" parent="1">
          <mxGeometry x="1665" y="620" width="310" height="60" as="geometry" />
        </mxCell>
        <mxCell id="9VaDb7st5AmOWOfAFCHQ-31" value="AnnotationTransactionAttributeSource&lt;br&gt;解析@Transactional" style="whiteSpace=wrap;html=1;rounded=0;" vertex="1" parent="1">
          <mxGeometry x="2310" y="200" width="270" height="60" as="geometry" />
        </mxCell>
      </root>
    </mxGraphModel>
  </diagram>
</mxfile>
